PathFileType	4	(X/Y/Z)	C:/ViconProjects/foot_20160225/trc/P_3_test01_dynamic.trc
DataRate	CameraRate	NumFrames	NumMarkers	Units	OrigDataRate	OrigDataStartFrame	OrigNumFrames
120.000000	120.000000	6	39	mm	120.000000	1222	1954
Frame#	Time	LFWT			RFWT			VBWT			LKNE			LANK			LMT5			LMT1			LHEL			LTOE			RKNE			RANK			RMT5			RMT1			RHEL			RTOE			T10			FHEAD			THEAD			RHEAD			LBSH			LELB			LOWR			RBSH			RELB			ROWR			LTHI			RTHI			LSHAN			RSHAN			LIHEL			LOHEL			RIHEL			ROHEL			LMT3			LNAVI			LCUNE			RMT3			RNAVI			RCUNE			
		X0	Y0	Z0	X1	Y1	Z1	X2	Y2	Z2	X3	Y3	Z3	X4	Y4	Z4	X5	Y5	Z5	X6	Y6	Z6	X7	Y7	Z7	X8	Y8	Z8	X9	Y9	Z9	X10	Y10	Z10	X11	Y11	Z11	X12	Y12	Z12	X13	Y13	Z13	X14	Y14	Z14	X15	Y15	Z15	X16	Y16	Z16	X17	Y17	Z17	X18	Y18	Z18	X19	Y19	Z19	X20	Y20	Z20	X21	Y21	Z21	X22	Y22	Z22	X23	Y23	Z23	X24	Y24	Z24	X25	Y25	Z25	X26	Y26	Z26	X27	Y27	Z27	X28	Y28	Z28	X29	Y29	Z29	X30	Y30	Z30	X31	Y31	Z31	X32	Y32	Z32	X33	Y33	Z33	X34	Y34	Z34	X35	Y35	Z35	X36	Y36	Z36	X37	Y37	Z37	X38	Y38	Z38	
1222	10.183333	-325.344150	138.854430	832.664120	-314.444090	-149.854280	831.099370	-544.996400	-10.849320	836.133970	-195.048230	189.669240	406.386140	-410.395480	171.407760	59.656840	-321.242830	215.467130	36.286630	-263.114780	147.671910	42.253830	-473.534580	108.882760	46.223220	-225.121630	164.955460	30.045260	-187.771620	-172.852200	405.644900	-402.660550	-176.468260	68.468510	-306.751950	-212.016010	34.096130	-258.261440	-131.781250	42.949600	-470.348690	-111.063760	45.094890	-214.127150	-151.013600	33.266030	-451.848540	46.315410	1190.132080	-17.580800	5.802360	1387.053830	-65.819350	-0.724760	1517.972410	-195.593480	-2.575550	1518.271850	-266.099180	201.932890	1286.411380	-385.420230	317.742190	992.321410	-265.492370	312.800720	761.927550	-246.516880	-203.468960	1280.875610	-308.193790	-310.695400	960.940490	-143.534470	-283.020170	754.549870	-172.271900	129.135930	586.129150	-151.483260	-119.716830	534.260190	-227.586790	113.228740	265.621090	-280.253750	-100.205510	190.193080	-431.687650	82.596180	40.223820	-450.745760	152.742510	43.730890	-428.007720	-84.769160	39.188270	-444.137210	-157.677380	45.435390	-277.982850	185.508760	39.039560	-349.684780	93.102150	41.042260	-382.709080	193.131240	34.566040	-266.333980	-170.042510	37.591870	-351.212770	-90.232460	44.845020	-372.002080	-190.538240	35.594220
1223	10.191667	-326.872890	139.169620	830.172550	-316.598720	-149.870440	829.412110	-547.266540	-10.280450	834.566220	-193.826480	189.745830	406.829530	-410.665130	171.276810	59.554350	-321.299960	215.145690	36.148390	-263.109280	147.635380	42.241280	-473.675660	108.922230	46.015740	-225.427260	164.980730	30.168170	-186.233870	-172.391680	404.765960	-403.931880	-177.081590	68.885060	-306.891600	-211.959790	34.121800	-258.413880	-131.834640	42.962960	-470.662810	-111.018300	44.890070	-214.501850	-151.277880	33.381440	-451.823030	46.566890	1189.037110	-16.260280	5.975220	1383.337160	-64.247630	-0.088220	1514.561650	-193.598450	-2.540740	1515.114010	-265.394900	201.816160	1283.530880	-387.847600	316.627040	990.524230	-277.342650	315.621640	755.722900	-245.720550	-203.656740	1277.966060	-310.529570	-309.443080	958.434880	-157.903400	-287.128230	743.284060	-173.240920	128.387620	586.343690	-153.264210	-119.631260	535.354920	-227.782010	112.773620	265.406890	-280.404020	-99.953120	189.472470	-431.790130	82.493390	40.076190	-450.893490	152.722470	43.635710	-428.176610	-84.719480	38.921320	-444.482910	-157.636260	45.189500	-278.122310	185.410310	38.983900	-349.834810	92.927510	40.869610	-382.814180	192.991580	34.649080	-266.480680	-170.026640	37.579360	-351.395080	-90.088580	44.583410	-372.173950	-190.515490	35.610290
1224	10.200000	-328.377960	138.879820	829.014590	-318.717010	-149.858430	828.721800	-548.639470	-9.678740	833.202580	-193.169490	189.424850	406.960140	-410.936460	171.255040	59.497990	-321.353150	215.116470	36.310940	-263.254210	147.632860	42.266020	-473.957730	109.096760	45.899780	-225.712050	165.123750	30.439230	-186.310500	-172.446170	402.618960	-403.922420	-177.116700	68.923580	-306.810270	-211.784550	34.249630	-258.436520	-131.828900	42.966540	-470.897520	-111.040310	44.848780	-214.593280	-151.411010	33.389310	-451.594760	46.479070	1188.238530	-14.977820	6.405310	1380.599240	-63.116070	0.151260	1511.772830	-192.165830	-2.786130	1512.672610	-264.981750	201.873580	1281.861820	-390.390810	316.053010	989.685180	-289.735660	318.553650	750.889710	-244.013570	-203.462310	1275.523320	-313.473390	-308.647280	956.680480	-172.359480	-290.765140	733.419490	-174.735310	127.645730	586.387270	-154.007580	-119.861070	535.415470	-228.230800	112.649220	265.049410	-280.192350	-100.095140	189.311170	-431.987520	82.571500	39.523130	-451.215910	152.798860	43.617440	-428.247920	-84.727860	38.851240	-444.279360	-157.565930	45.206960	-278.184690	185.445620	39.018010	-350.325230	92.556060	40.753760	-382.923460	193.065610	34.644970	-266.571290	-169.971070	37.626890	-351.788330	-89.959240	44.387350	-372.166660	-190.499480	35.694010
1225	10.208333	-329.338100	138.279830	828.085570	-320.622680	-149.605820	827.667790	-549.882630	-9.156870	832.947080	-192.785000	188.986660	407.020690	-410.856020	171.265840	59.498300	-321.445590	215.038970	36.222530	-263.239110	147.655140	42.295570	-474.009800	109.205000	45.849570	-225.837270	165.054400	30.266130	-187.638870	-173.073490	401.136780	-403.715790	-177.170140	69.211080	-306.739110	-211.715290	34.291790	-258.306210	-131.760060	42.942570	-470.814240	-111.018540	44.850430	-214.494770	-151.498720	33.350120	-451.420780	46.364560	1188.042110	-14.375500	6.458590	1378.501830	-61.328020	-0.015780	1509.942870	-191.305880	-2.453590	1511.258420	-264.588100	202.230880	1279.967410	-392.706210	315.426150	989.649480	-302.391450	321.251340	747.175350	-243.487730	-203.268130	1272.782590	-317.271270	-308.227450	955.589540	-188.267680	-295.673550	725.549500	-176.065370	126.516110	586.903560	-153.938170	-119.854110	534.835080	-228.670060	112.819110	264.704620	-280.140840	-100.138280	189.248610	-432.073000	82.580760	39.525790	-451.306000	152.852130	43.651440	-428.243190	-84.706250	38.839160	-444.295100	-157.529910	45.314450	-278.168610	185.444200	39.031620	-350.084900	92.715140	40.766770	-382.902530	193.079820	34.620590	-266.433560	-169.965380	37.684750	-351.546330	-89.974080	44.531780	-371.993260	-190.436110	35.793120
1226	10.216667	-330.203160	138.244600	827.699830	-321.548400	-149.364520	827.268250	-551.339540	-8.786180	833.069520	-193.853130	189.548430	407.073490	-410.947390	171.292720	59.477020	-321.339450	215.015460	36.427500	-263.279170	147.640370	42.295610	-474.056730	109.165050	45.838040	-225.850040	165.087170	30.304780	-190.000990	-173.781400	401.047970	-403.586790	-177.078610	69.234080	-306.621430	-211.555070	34.378470	-258.305940	-131.701340	42.949070	-470.772610	-110.887390	44.833060	-214.461140	-151.513920	33.405040	-451.156740	46.356160	1188.303470	-13.473310	6.999930	1376.759640	-60.129500	-0.018210	1508.294680	-190.011610	-2.920010	1509.567140	-264.239380	201.839770	1279.230830	-395.281770	315.102020	990.381710	-315.181430	323.790370	744.958370	-242.044070	-203.318100	1271.874020	-320.394260	-308.022580	955.311100	-203.943920	-298.927120	718.937810	-176.881040	125.801610	587.750980	-154.228230	-120.629780	533.131350	-228.665270	112.895260	265.006620	-280.150210	-100.135940	189.334930	-432.083980	82.595410	39.504730	-451.367430	152.843190	43.618840	-428.209010	-84.585920	38.793910	-444.535550	-157.497570	45.287820	-278.177220	185.485060	39.069890	-350.085360	92.754480	40.815460	-382.957120	193.056960	34.710990	-266.411070	-169.930790	37.701360	-351.598450	-89.831020	44.431940	-371.832790	-190.317570	35.978390
1227	10.225000	-331.042300	138.369930	827.662350	-323.035580	-148.615130	826.594480	-552.742130	-8.709280	833.727110	-194.986360	189.838120	407.586490	-410.873470	171.280990	59.463710	-321.370240	214.920780	36.434460	-263.254910	147.636310	42.341640	-474.002010	109.199460	45.768570	-225.879060	165.185610	30.465250	-192.055910	-174.001050	402.090790	-402.852940	-176.542160	68.662190	-306.557800	-211.402280	34.446990	-258.259830	-131.683780	42.921270	-470.928100	-110.847690	44.784240	-214.512250	-151.563920	33.452210	-450.592620	46.308440	1188.923580	-11.940930	6.900540	1376.180910	-59.124220	-0.172200	1507.538450	-188.329790	-2.767500	1508.821780	-263.483460	202.241210	1279.222410	-398.958680	314.836880	991.911500	-327.250150	325.882420	743.788880	-241.082210	-202.981670	1270.181760	-324.660770	-308.145510	955.688290	-220.582350	-302.496610	714.007810	-178.166560	124.935520	588.429440	-155.233670	-121.338290	532.088870	-228.988660	113.545990	265.834500	-280.403690	-100.076700	189.541790	-432.096070	82.566700	39.408250	-451.355440	152.832030	43.582110	-428.251650	-84.584800	38.715070	-444.520320	-157.481110	45.207700	-278.226290	185.436260	39.049190	-350.427580	92.632450	40.955300	-383.016910	192.992070	34.768960	-266.449770	-169.849180	37.744950	-351.595920	-89.819110	44.476400	-371.722380	-190.221910	36.011380
